<?xml version="1.0" encoding="UTF-8"?>
<svg width="203px" height="290px" viewBox="0 0 203 290" version="1.1" xmlns="http://www.w3.org/2000/svg" xmlns:xlink="http://www.w3.org/1999/xlink">
    <!-- Generator: Sketch 54.1 (76490) - https://sketchapp.com -->
    <title>icon_masthead</title>
    <desc>Created with Sketch.</desc>
    <g id="Page-1" stroke="none" stroke-width="1" fill="none" fill-rule="evenodd">
        <path d="M52,35.9421509 L52,253.31117 L6.5,227.040607 L6.5,62.2119622 L52,35.9421509 Z M100,116.193007 L100,173.06443 L146.749877,200.050797 L54.5,253.31357 L54.5,35.9425894 L146.745924,89.2030795 L100,116.193007 Z M101.25,281.746888 L55.7519981,255.47748 L149.250068,201.494032 L194.752995,227.760597 L101.25,281.746888 Z M196,116.196529 L149.252079,143.181767 L103.748373,116.914752 L109.749767,113.450518 L147.249895,91.8040093 L188.275233,68.1118767 L196,63.6517894 L196,116.196529 Z M103.750959,172.343045 L149.248057,146.068471 L196,173.05603 L196,225.593804 L103.750959,172.343045 Z M146.75008,144.624114 L102.5,170.178535 L102.5,119.080755 L146.75008,144.624114 Z M187.024767,65.9470824 L149.245843,87.7596884 L55.7495936,33.7772912 L61.749401,30.3132515 L66.2948909,27.6888743 L101.250015,7.50567943 L194.746127,61.487997 L188.747422,64.9522489 L187.024767,65.9470824 Z M198.5,117.64003 L198.5,60.7686072 L101.249985,4.61887965 L65.0448414,25.5238393 L4,60.7685968 L4,228.483952 L101.25,284.633671 L198.5,228.483952 L198.5,171.612529 L151.750326,144.62628 L198.5,117.64003 Z" id="icon" stroke="#FFFFFF" stroke-width="8"></path>
    </g>
</svg>