<?xml version="1.0" encoding="UTF-8"?>
<svg width="79px" height="79px" viewBox="0 0 79 79" version="1.1" xmlns="http://www.w3.org/2000/svg" xmlns:xlink="http://www.w3.org/1999/xlink">
    <!-- Generator: Sketch 50.2 (55047) - http://www.bohemiancoding.com/sketch -->
    <title>feature-icon-quarter</title>
    <desc>Created with Sketch.</desc>
    <defs></defs>
    <g id="Page-1" stroke="none" stroke-width="1" fill="none" fill-rule="evenodd">
        <g id="Group-3">
            <path d="M43,43 C43,19.2517558 23.7482442,0 0,0 L0,43 L43,43 Z" id="opacity" fill="#FAA73F" opacity="0.55" transform="translate(21.500000, 21.500000) rotate(-90.000000) translate(-21.500000, -21.500000) "></path>
            <circle id="image" fill="#FAA73F" cx="43" cy="43" r="36"></circle>
            <g id="icon" transform="translate(31.000000, 29.000000)" stroke="#FFFFFF" stroke-width="2">
                <g id="bottom" transform="translate(11.500000, 20.500000) rotate(-180.000000) translate(-11.500000, -20.500000) translate(0.000000, 10.000000)">
                    <path d="M5,1 L5,7 M5,13 L5,21 L23,21" id="path"></path>
                    <polyline id="path" points="10.0007673 5 4.98577881 1.36424205e-12 0 5"></polyline>
                </g>
                <g id="top" transform="translate(1.000000, 0.000000)">
                    <path d="M5,1 L5,7 M5,13 L5,21 L23,21" id="path"></path>
                    <polyline id="path" points="10.0007673 5 4.98577881 0 0 5"></polyline>
                </g>
            </g>
        </g>
    </g>
</svg>