<?xml version="1.0" encoding="UTF-8"?>
<svg width="551px" height="286px" viewBox="0 0 551 286" version="1.1" xmlns="http://www.w3.org/2000/svg" xmlns:xlink="http://www.w3.org/1999/xlink">
    <!-- Generator: Sketch 50.2 (55047) - http://www.bohemiancoding.com/sketch -->
    <title>mu-masthead-image</title>
    <desc>Created with Sketch.</desc>
    <defs>
        <linearGradient x1="50%" y1="26.0756063%" x2="50%" y2="100%" id="linearGradient-1">
            <stop stop-color="#29E7E4" stop-opacity="0.0819746377" offset="0%"></stop>
            <stop stop-color="#12CBC4" offset="100%"></stop>
        </linearGradient>
        <linearGradient x1="50.9102762%" y1="100%" x2="50.9102768%" y2="45.604248%" id="linearGradient-2">
            <stop stop-color="#29E7E4" offset="0%"></stop>
            <stop stop-color="#12CBC4" stop-opacity="0" offset="100%"></stop>
        </linearGradient>
        <path d="M163,0 L163,117.645085 L142.625,129.411031 L142.625,35.2930459 L81.5,70.5812972 L20.375,35.2930459 L20.375,176.46523 L0,164.699283 L0,0 L81.5,47.0541982 L163,0 Z M101.873562,82.3501208 L122.248562,70.584174 L122.248562,141.17506 L101.873562,152.941007 L81.4985618,164.702159 L61.1235618,152.941007 L61.1235618,200 L40.7485618,188.234053 L40.7485618,70.584174 L61.1235618,82.3501208 L61.1235618,129.418703 L81.4985618,141.17506 L101.873562,129.409114 L101.873562,82.3501208 Z" id="path-3"></path>
        <linearGradient x1="88.837466%" y1="10.7835036%" x2="0%" y2="100%" id="linearGradient-5">
            <stop stop-color="#11B7B9" stop-opacity="0" offset="0%"></stop>
            <stop stop-color="#11B8B9" offset="100%"></stop>
        </linearGradient>
        <linearGradient x1="100%" y1="100%" x2="6.1107879%" y2="6.62254051%" id="linearGradient-6">
            <stop stop-color="#11B6B8" offset="0%"></stop>
            <stop stop-color="#11B6B7" stop-opacity="0" offset="100%"></stop>
        </linearGradient>
    </defs>
    <g id="Page-1" stroke="none" stroke-width="1" fill="none" fill-rule="evenodd">
        <g id="image" transform="translate(0.000000, -47.000000)">
            <g id="base" opacity="0.555803571">
                <polygon id="opacity" fill="#12CBC4" opacity="0.1" points="141 202.31543 275.484375 280.366211 410.344727 202.31543 275.484375 124"></polygon>
                <polygon id="opacity" fill="#12CBC4" opacity="0.2" points="141 181.31543 275.484375 259.366211 410.344727 181.31543 275.484375 103"></polygon>
                <polygon id="opacity" fill="url(#linearGradient-1)" opacity="0.442522321" points="141 159.31543 275.484375 237.366211 410.344727 159.31543 275.484375 81"></polygon>
                <path d="M0.994558218,160.270067 L275.115781,319.422041 L550.003363,160.270067 L275.115782,0.578452235 L0.994558218,160.270067 Z" id="opacity" stroke="url(#linearGradient-2)" opacity="0.470033482"></path>
            </g>
            <g id="brand" transform="translate(194.000000, 47.000000)">
                <mask id="mask-4" fill="white">
                    <use xlink:href="#path-3"></use>
                </mask>
                <use fill="#12CBC4" xlink:href="#path-3"></use>
                <rect id="Rectangle-6" fill="#0E7690" opacity="0.290234375" mask="url(#mask-4)" x="81.5" y="-14.5688623" width="110.264706" height="252.694611"></rect>
            </g>
            <g id="square" transform="translate(64.000000, 250.000000)" fill="#12CBC4">
                <polygon id="Path-4" opacity="0.755412946" points="0 7.52582097 12.6928637 0 25.8631302 7.72345074 12.8265379 15.0516419"></polygon>
                <polygon id="Path-5" points="12.9536994 15.0779595 12.9536994 29.9339675 0 22.5059635 0 7.62711864"></polygon>
                <polygon id="Path-5-Copy" opacity="0.428348214" transform="translate(19.221948, 18.780543) scale(-1, 1) translate(-19.221948, -18.780543) " points="25.6987975 15.0779595 25.6987975 29.9339675 12.745098 22.5059635 12.745098 7.62711864"></polygon>
            </g>
            <g id="square" transform="translate(80.000000, 300.000000)" fill="#12CBC4">
                <polygon id="Path-4" opacity="0.755412946" points="0 7.52582097 12.6928637 0 25.8631302 7.72345074 12.8265379 15.0516419"></polygon>
                <polygon id="Path-5" points="12.9536994 15.0779595 12.9536994 29.9339675 0 22.5059635 0 7.62711864"></polygon>
                <polygon id="Path-5-Copy" opacity="0.428348214" transform="translate(19.221948, 18.780543) scale(-1, 1) translate(-19.221948, -18.780543) " points="25.6987975 15.0779595 25.6987975 29.9339675 12.745098 22.5059635 12.745098 7.62711864"></polygon>
            </g>
            <g id="square" transform="translate(159.000000, 303.000000)" fill="#12CBC4">
                <polygon id="Path-4" opacity="0.755412946" points="0 7.52582097 12.6928637 0 25.8631302 7.72345074 12.8265379 15.0516419"></polygon>
                <polygon id="Path-5" points="12.9536994 15.0779595 12.9536994 29.9339675 0 22.5059635 0 7.62711864"></polygon>
                <polygon id="Path-5-Copy" opacity="0.428348214" transform="translate(19.221948, 18.780543) scale(-1, 1) translate(-19.221948, -18.780543) " points="25.6987975 15.0779595 25.6987975 29.9339675 12.745098 22.5059635 12.745098 7.62711864"></polygon>
            </g>
            <g id="square" transform="translate(436.000000, 244.000000)" fill="#12CBC4">
                <polygon id="Path-4" opacity="0.755412946" points="0 7.52582097 12.6928637 0 25.8631302 7.72345074 12.8265379 15.0516419"></polygon>
                <polygon id="Path-5" points="12.9536994 15.0779595 12.9536994 29.9339675 0 22.5059635 0 7.62711864"></polygon>
                <polygon id="Path-5-Copy" opacity="0.428348214" transform="translate(19.221948, 18.780543) scale(-1, 1) translate(-19.221948, -18.780543) " points="25.6987975 15.0779595 25.6987975 29.9339675 12.745098 22.5059635 12.745098 7.62711864"></polygon>
            </g>
            <g id="square" transform="translate(342.000000, 297.000000)" fill="#12CBC4">
                <polygon id="Path-4" opacity="0.755412946" points="0 7.52582097 12.6928637 0 25.8631302 7.72345074 12.8265379 15.0516419"></polygon>
                <polygon id="Path-5" points="12.9536994 15.0779595 12.9536994 29.9339675 0 22.5059635 0 7.62711864"></polygon>
                <polygon id="Path-5-Copy" opacity="0.428348214" transform="translate(19.221948, 18.780543) scale(-1, 1) translate(-19.221948, -18.780543) " points="25.6987975 15.0779595 25.6987975 29.9339675 12.745098 22.5059635 12.745098 7.62711864"></polygon>
            </g>
            <g id="square" transform="translate(401.000000, 284.000000)" fill="#12CBC4">
                <polygon id="Path-4" opacity="0.755412946" points="0 7.52582097 12.6928637 0 25.8631302 7.72345074 12.8265379 15.0516419"></polygon>
                <polygon id="Path-5" points="12.9536994 15.0779595 12.9536994 29.9339675 0 22.5059635 0 7.62711864"></polygon>
                <polygon id="Path-5-Copy" opacity="0.428348214" transform="translate(19.221948, 18.780543) scale(-1, 1) translate(-19.221948, -18.780543) " points="25.6987975 15.0779595 25.6987975 29.9339675 12.745098 22.5059635 12.745098 7.62711864"></polygon>
            </g>
            <g id="line" transform="translate(84.000000, 204.000000)" stroke-linecap="square">
                <path d="M91.5,0.5 L0.5,51.5" stroke="url(#linearGradient-5)"></path>
                <path d="M136,33 L17,101" stroke="url(#linearGradient-5)"></path>
                <path d="M175.941406,58 L90.5,105.5" stroke="url(#linearGradient-5)"></path>
                <path d="M210.5,65.5 L268.5,99.5" stroke="url(#linearGradient-6)"></path>
                <path d="M247.5,37.5 L327.5,87.5" stroke="url(#linearGradient-6)"></path>
                <path d="M297.5,7.5 L359.5,45.5" stroke="url(#linearGradient-6)"></path>
            </g>
        </g>
    </g>
</svg>