<?xml version="1.0" encoding="UTF-8"?>
<svg width="64px" height="72px" viewBox="0 0 64 72" version="1.1" xmlns="http://www.w3.org/2000/svg" xmlns:xlink="http://www.w3.org/1999/xlink">
    <!-- Generator: Sketch 54.1 (76490) - https://sketchapp.com -->
    <title>feature-icon-quarter</title>
    <desc>Created with Sketch.</desc>
    <g id="Page-1" stroke="none" stroke-width="1" fill="none" fill-rule="evenodd">
        <g id="feature-icon-quarter" transform="translate(-4.000000, 0.000000)">
            <polygon id="Polygon" fill="#FF4650" points="36 0 67.1769145 18 67.1769145 54 36 72 4.82308546 54 4.82308546 18"></polygon>
            <g id="icon-copy-2" transform="translate(24.000000, 21.000000)" stroke="#FFFFFF" stroke-width="2">
                <g id="bottom" transform="translate(11.500000, 20.500000) rotate(-180.000000) translate(-11.500000, -20.500000) translate(0.000000, 10.000000)">
                    <path d="M5,1 L5,7 M5,13 L5,21 L23,21" id="path"></path>
                    <polyline id="path" points="10.0007673 5 4.98577881 1.36424205e-12 0 5"></polyline>
                </g>
                <g id="top" transform="translate(1.000000, 0.000000)">
                    <path d="M5,1 L5,7 M5,13 L5,21 L23,21" id="path"></path>
                    <polyline id="path" points="10.0007673 5 4.98577881 0 0 5"></polyline>
                </g>
            </g>
        </g>
    </g>
</svg>